<svg xmlns="http://www.w3.org/2000/svg" width="64" height="64" viewBox="0 0 14 14"><path fill="currentColor" fill-rule="evenodd" d="M2.235 1.36c.07-.07.166-.11.265-.11h5.586c.1 0 .195.04.265.11l3.414 3.414c.07.07.11.166.11.265v7.336a.375.375 0 0 1-.375.375h-9a.375.375 0 0 1-.375-.375V1.625c0-.1.04-.195.11-.265M2.5 0A1.625 1.625 0 0 0 .875 1.625v10.75A1.625 1.625 0 0 0 2.5 14h9a1.625 1.625 0 0 0 1.625-1.625V5.039c0-.43-.171-.844-.476-1.149L9.235.476A1.63 1.63 0 0 0 8.085 0zm4.133 4.761a1.775 1.775 0 1 0-2.77.001a2.75 2.75 0 0 0-.806.945a.5.5 0 0 0 .443.733h3.498a.5.5 0 0 0 .443-.733a2.75 2.75 0 0 0-.808-.946m-1.91-1.11a.525.525 0 1 1 1.05 0a.525.525 0 0 1-1.05 0M2.875 8.5c0-.345.28-.625.625-.625h7a.625.625 0 1 1 0 1.25h-7a.625.625 0 0 1-.625-.625m.625 1.875a.625.625 0 1 0 0 1.25h4a.625.625 0 1 0 0-1.25z" clip-rule="evenodd"/></svg>